<?xml version="1.0" encoding="utf-8"?>
<!-- Generator: Adobe Illustrator 24.0.1, SVG Export Plug-In . SVG Version: 6.00 Build 0)  -->
<svg version="1.1" id="圖層_1" xmlns="http://www.w3.org/2000/svg" xmlns:xlink="http://www.w3.org/1999/xlink" x="0px" y="0px"
	 viewBox="0 0 596.3 596.3" style="enable-background:new 0 0 596.3 596.3;" xml:space="preserve">
<style type="text/css">
	.st0{fill:#040000;}
</style>
<path class="st0" d="M24.7,427.7c-2.7,2.7-3.1,7-0.9,10.1c2.2,3.2,6.3,4.3,9.8,2.7c1.3-0.6,2.6-1.4,3.8-2.2v0l54.6-33.7
	c0.7-0.5,1.5-0.7,2.3-0.6c-0.9,0.8-1.8,1.7-2.7,2.5c-11.4,9.7-22.8,19.4-34.2,29.1c-2.4,2-4.7,4.2-6.7,6.6
	c-2.8,2.8-3.7,6.9-2.4,10.7c1.3,3.7,4.6,6.4,8.5,6.9l0,0c0.4,0.1,0.8,0.2,1.7,0.5c0.3,3.6,2.7,6.6,6.1,7.7c-0.6,3.1-1.5,6.5,1.1,8.9
	c2.4,1.8,5,3.5,7.7,4.8c-0.2,0.9-0.6,2-0.8,3.1c-0.6,2.9,0.5,6,2.9,7.8c2.4,1.8,5.6,2.2,8.3,0.9c1.7-0.9,3.4-1.9,4.9-3.1l79.3-57.5
	c0.6-0.4,1.3-0.5,1.9-0.3c-0.2,0.4-0.5,0.8-0.8,1.1c-17.7,15.4-34.9,31.5-53.7,45.6c-4.1,3.1-8.2,6-12.3,9c-1.1,0.8-2.1,1.6-3.1,2.6
	c-2.5,2.6-3,6.4-1.4,9.6c1.4,3.1,4.7,4.9,8.1,4.4c2.4-0.3,4.6-1.1,6.6-2.4c4.2-2.7,8.2-5.6,12-8.7v0c21.5-17.4,42.6-35.4,64.5-52.4
	c37.9-29.3,76.3-57.9,114.5-86.8l12.1-9.1c1.1,1.1,2.2,2.1,3.2,3.1c44,48.2,87.9,96.5,131.9,144.7c4.7,5.2,9.3,10.6,14.3,15.5
	c2.9,3,6.2,5.5,9.8,7.7c3.8,3,9.2,3,13,0c3.3-3.6,3.6-9,0.7-12.9c-2.1-3.8-4.5-7.4-7.3-10.7l0,0c-4.3-5.1-8.9-10-13.7-15.3
	c2.5-2.5,3.2-6.3,1.9-9.6v0l0.9-0.3l3.2,3.6l80.8,88c1.7,1.9,3.5,3.7,5.4,5.4c4.2,4.2,10.9,4.3,15.2,0.4c4.4-3.9,4.9-10.6,1.2-15.2
	c-1.3-2-2.9-3.8-4.5-5.6c-9.6-10.5-19.3-20.9-28.9-31.4c-1.1-1.2-2.1-2.3-3.7-4.2c1.7-0.2,2.5-0.2,3.2-0.3c2.2-0.1,4.3-1.2,5.6-2.9
	c1.4-1.7,2-4,1.6-6.2c-0.3-3-1.3-5.8-2.8-8.4c-2-3.3-4.4-6.4-7.1-9.2l0,0c-54.4-59.1-108.7-118.2-163-177.2c-1-1.1-2-2.2-3.3-3.7
	l5.6-4.6c1.3,1.1,2.3,2,3.2,2.9c43.4,43.4,85.6,88,127.5,132.8c8.7,9.3,17.2,18.7,25.7,28.2c3.3,3.6,6.4,7.5,9.6,11.3
	c1.1,1.7,2.8,3,4.8,3.4c2,0.5,4.1,0.1,5.8-1c1.7-1.2,2.9-3,3.2-5c0.4-2-0.1-4.1-1.3-5.8c-1.3-2.2-2.9-4.2-4.6-6.1
	c-8-9.1-16.1-18.1-24.1-27.2c-1.3-1.8-2.6-3.6-3.7-5.5c-2.1-3.3-4.3-6.4-6.7-9.5c-7.7-8.9-15.4-17.6-23.3-26.1
	c-31.7-34.1-63.4-68.3-95-102.4L397,282c1.4-1.3,2.4-2.3,3.5-3.2c36.2-30.1,70.1-62.7,101.7-97.6v0c5.3-5.9,11.3-11.1,17.1-16.5
	c8.1-7.6,16.2-15,24.3-22.7c1.8-1.6,3.3-3.4,4.6-5.4c2.3-3.4,1.5-8-1.8-10.5c-3.3-2.3-7.9-1.6-10.4,1.6h0
	c-8.2,7.8-16.5,15.6-24.8,23.4c-0.9,0.8-1.9,1.4-3.1,1.7c-2.7,0.8-5.1,2.5-6.6,5c-2.9,3.9-6.3,7.6-10,10.8l0,0
	c-23.9,19.9-47.9,39.7-72,59.5c-6.2,5.1-12.6,10.1-19,15.1c-0.9,0.8-2,1.2-3.2,1.3l0,0c1.2-1.1,2.3-2.2,3.5-3.2
	c34.3-30,68.9-59.6,101.5-91.3c11-10.7,21.6-21.6,32.2-32.6c3.3-3.5,6.3-7.2,9.2-11c1.2-1.5,2.2-3.2,2.8-5.1c1.5-3.6,0-7.7-3.4-9.6
	c-3.5-1.9-7.8-0.6-9.8,2.7l0,0c-1.7,2.4-3.5,4.8-5.3,7.3c-0.6,0.8-1.2,1.7-2.2,3.2c-0.5-2.2-0.7-3.2-1-4.2c-0.6-2.3-2.2-4.2-4.5-5
	s-4.7-0.5-6.6,0.9c-1.3,1-2.6,2-3.7,3.2v0c-9.2,9-18.4,18-27.3,26.6c0.3-0.4,0.8-1.3,1.5-2c4.9-5.7,9.8-11.3,14.6-17.1
	c2.1-1.6,3.4-4.1,3.7-6.7c0.3-2.6-0.5-5.3-2.2-7.3v0c1.3-2,2.7-4,4.1-6.2c1.7-2.5,2.5-5.5,2.3-8.5c-0.2-3.7-3.1-6.8-6.8-7.3
	c-3.6-0.3-6.9,1.9-7.9,5.3c-0.9,2.5-2.2,4.8-3.8,7h0c-8.4,9.4-16.9,18.6-25.4,27.8c-0.4,0.5-0.8,0.9-1.3,1.2
	c-4.4,2.2-8.3,5.5-11.2,9.5l0,0c-20.7,22.3-44,41.9-66.7,62.1c-4.7,4.2-9.4,8.3-14.2,12.4l-0.7-0.6c1.1-1.1,2-2.1,3-3.2
	c15.2-15.7,30.6-31.3,45.4-47.3c15-16.7,28.7-34.6,41-53.4c1.2-1.7,2.3-3.5,3.2-5.4c1.1-1.8,1.5-4,1-6.1c-0.5-2.1-1.8-3.9-3.6-4.9
	c-1-0.9-1.9-1.8-2.7-2.9c-1.2-1.7-3-2.8-5-3.1c-2-0.3-4.1,0.2-5.7,1.4c-2.1,1.7-3.9,3.6-5.5,5.8l0,0c-1.7,2.1-2.8,4.5-4.8,6.5
	c-12,12.4-23.7,25-36.1,36.9c-26.7,25.2-53.7,50.1-80.6,75c-0.9,0.8-1.8,1.5-3,2.5c-1.4-1.4-2.7-2.6-3.9-3.8
	c-37-36.6-74.5-72.9-113.5-107.4c-7.1-6.2-14.3-12.4-21.7-18.2c-4.2-3.3-8.8-6.2-13.5-8.7c-3.1-1.5-6.4-2.4-9.9-2.6
	c-2.8-0.5-5.7,0.7-7.3,3.1c-1.6,2.4-1.7,5.5-0.2,7.9c2.1,3.8,4.8,7.2,7.9,10.2c46.7,44.4,93.3,88.7,140,133.1c1.1,1,2.3,1.9,3.8,3.2
	l-3.1,3.8c-1.5-1.4-2.4-2.1-3.3-3c-48.8-48.1-99.3-94.3-150.1-140c-10.1-9.1-20.1-18.4-29.9-27.9c-4.9-4-8.7-9.1-11.3-14.9
	c-1.3-2.9-4.3-4.5-7.4-3.8c-3.2,0.5-5.8,3-6.4,6.2c-0.6,2.8,0,5.8,1.6,8.2c2.3,3.2,4.8,6.4,7.3,9.6c1.1,1.4,2.2,2.6,4.2,4.8
	c-6.5-1.1-10.8,0.5-12.1,7.1c-1.4-1.1-2.4-1.8-3.4-2.7c-5.8-5.2-11.5-10.5-17.3-15.7c-1.7-1.5-3.4-2.9-5.3-4.1
	c-2.8-2-6.5-2.1-9.3-0.1c-2.8,1.8-4,5.2-3,8.3c0.1,0.6,0.1,1.2,0,1.8c-1.6-1.5-3.2-2.8-5-4c-2.4-1.5-4.9-2.7-7.7-3.3
	c-3.6-0.6-7,1.6-8,5.1c-1,3.3,0.4,6.8,3.3,8.5c3.2,2.2,6.2,4.7,9,7.3c66.2,64.6,132.7,128.8,197,195.4l4.2,4.4c-1,1.1-2,2.1-2.9,3
	c-61.9,56.4-129,106.8-200.5,150.4c-3.3,2-6.4,3.9-9.6,5.9c-1.3,0.8-2.5,1.7-3.5,2.8L24.7,427.7z M101.2,99.5c0.3,0.4,0,1.1,0,2.2
	C83.9,87.3,67.6,71.8,52.5,55.3h0c1.3,1,2.3,1.7,3.2,2.4l43.8,39.9C100.1,98.2,100.7,98.8,101.2,99.5L101.2,99.5z M393.6,247.8
	l1.7-1.7l0.4,0.4l-1.8,1.6L393.6,247.8z M362.1,201.6l1.3-1l0.3,0.6l-1.2,0.9L362.1,201.6z M285.8,311.8
	c-34.2,29.9-70.5,57.2-108.8,81.6h0l105.3-84.9L285.8,311.8L285.8,311.8z"/>
</svg>
